<svg width="24" height="24" viewBox="0 0 24 24" fill="none" xmlns="http://www.w3.org/2000/svg">
<path d="M4.91138 20.0477V17.6102H5.8695L21.5647 17.6064V21.55C21.5648 21.8717 21.5016 22.1903 21.3787 22.4876C21.2557 22.7848 21.0753 23.0549 20.8479 23.2825C20.6205 23.51 20.3505 23.6905 20.0533 23.8137C19.7561 23.9368 19.4376 24.0002 19.1159 24.0002H7.36106C7.03943 24.0003 6.72093 23.937 6.42375 23.8139C6.12658 23.6909 5.85654 23.5106 5.62907 23.2832C5.40159 23.0558 5.22113 22.7858 5.09799 22.4887C4.97485 22.1916 4.91144 21.8731 4.91138 21.5514V20.0477Z" fill="#E7E7E9"/>
<path d="M21.5648 17.1561V17.6071L5.86962 17.6108H3.65384C3.35251 17.6108 3.06187 17.7224 2.83801 17.9241C2.61415 18.1258 2.47294 18.4033 2.44165 18.703L2.46181 10.1019C2.46181 9.77868 2.59021 9.46869 2.81877 9.24013C3.04733 9.01157 3.35732 8.88316 3.68056 8.88316H4.91149L21.5648 8.87988V17.1561Z" fill="#0C98E5"/>
<path d="M21.0717 3.48023C21.3178 3.69972 21.4829 3.99558 21.5405 4.32023H18.6258C18.2362 4.32011 17.8626 4.16529 17.5872 3.88982C17.3117 3.61434 17.1569 3.24075 17.1567 2.85117V0.111328C17.3102 0.173573 17.4519 0.261555 17.5758 0.371484L21.0717 3.48023Z" fill="#A3A2A3"/>
<path d="M21.5405 4.32C21.5559 4.40507 21.5636 4.49136 21.5634 4.57781V8.88047L4.91016 8.88375V2.93859C4.91022 2.55255 4.98633 2.1703 5.13415 1.81368C5.28197 1.45706 5.49859 1.13305 5.77165 0.860169C6.04471 0.587283 6.36886 0.370864 6.72557 0.223275C7.08229 0.0756849 7.46458 -0.000184378 7.85063 3.36472e-07H16.598C16.7899 -0.000111575 16.9799 0.0376406 17.1572 0.111094V2.85094C17.1573 3.24044 17.3121 3.61396 17.5874 3.88942C17.8628 4.16488 18.2363 4.31975 18.6258 4.32H21.5405Z" fill="#E7E7E9"/>
<path d="M4.91148 17.7159V20.0474H3.65382C3.4933 20.0474 3.33436 20.0157 3.18612 19.9541C3.03789 19.8925 2.90329 19.8022 2.79004 19.6885C2.6768 19.5747 2.58714 19.4397 2.52622 19.2912C2.46531 19.1427 2.43433 18.9836 2.43507 18.823C2.43508 18.783 2.43727 18.7429 2.44163 18.703C2.47303 18.4034 2.61429 18.1261 2.83814 17.9245C3.06199 17.7229 3.35257 17.6113 3.65382 17.6113H4.91148V17.7159Z" fill="#0576C0"/>
<path d="M7.5487 13.205C7.5487 12.835 7.4812 12.535 7.3462 12.305C7.2162 12.07 7.0362 11.8975 6.8062 11.7875C6.5812 11.6725 6.3237 11.615 6.0337 11.615C5.9237 11.615 5.8187 11.62 5.7187 11.63C5.6237 11.635 5.5312 11.645 5.4412 11.66V14.7725C5.5312 14.7925 5.6312 14.8075 5.7412 14.8175C5.8512 14.8225 5.9612 14.825 6.0712 14.825C6.5362 14.825 6.8987 14.69 7.1587 14.42C7.4187 14.145 7.5487 13.74 7.5487 13.205ZM8.5237 13.19C8.5237 13.73 8.4212 14.18 8.2162 14.54C8.0112 14.895 7.7262 15.16 7.3612 15.335C6.9962 15.51 6.5662 15.5975 6.0712 15.5975C5.9062 15.5975 5.7112 15.5875 5.4862 15.5675C5.2612 15.5525 5.0537 15.5125 4.8637 15.4475C4.6187 15.3625 4.4962 15.215 4.4962 15.005V11.3225C4.4962 11.2275 4.5212 11.155 4.5712 11.105C4.6262 11.055 4.6962 11.015 4.7812 10.985C4.9662 10.93 5.1662 10.8925 5.3812 10.8725C5.6012 10.8525 5.8062 10.8425 5.9962 10.8425C6.5012 10.8425 6.9412 10.93 7.3162 11.105C7.6962 11.275 7.9912 11.5325 8.2012 11.8775C8.4162 12.2225 8.5237 12.66 8.5237 13.19ZM12.8299 13.7225C12.8299 14.1075 12.7549 14.4425 12.6049 14.7275C12.4549 15.0075 12.2424 15.225 11.9674 15.38C11.6974 15.53 11.3774 15.605 11.0074 15.605C10.6374 15.605 10.3149 15.53 10.0399 15.38C9.76487 15.225 9.54987 15.0075 9.39487 14.7275C9.24487 14.4475 9.16987 14.1125 9.16987 13.7225C9.16987 13.3375 9.24737 13.005 9.40237 12.725C9.55737 12.445 9.77237 12.23 10.0474 12.08C10.3224 11.925 10.6424 11.8475 11.0074 11.8475C11.3724 11.8475 11.6899 11.925 11.9599 12.08C12.2349 12.23 12.4474 12.4475 12.5974 12.7325C12.7524 13.0125 12.8299 13.3425 12.8299 13.7225ZM11.0074 12.5825C10.7324 12.5825 10.5149 12.6825 10.3549 12.8825C10.1999 13.0825 10.1224 13.3625 10.1224 13.7225C10.1224 14.0925 10.1999 14.3775 10.3549 14.5775C10.5099 14.7725 10.7274 14.87 11.0074 14.87C11.2824 14.87 11.4974 14.77 11.6524 14.57C11.8074 14.37 11.8849 14.0875 11.8849 13.7225C11.8849 13.3675 11.8074 13.09 11.6524 12.89C11.4974 12.685 11.2824 12.5825 11.0074 12.5825ZM15.4424 12.59C15.1424 12.59 14.8899 12.6875 14.6849 12.8825C14.4849 13.0775 14.3849 13.3625 14.3849 13.7375C14.3849 14.1075 14.4824 14.3875 14.6774 14.5775C14.8724 14.7675 15.1249 14.8625 15.4349 14.8625C15.6199 14.8625 15.7749 14.84 15.8999 14.795C16.0299 14.745 16.1424 14.6925 16.2374 14.6375C16.3124 14.6825 16.3699 14.7375 16.4099 14.8025C16.4549 14.8625 16.4774 14.9375 16.4774 15.0275C16.4774 15.1975 16.3749 15.3375 16.1699 15.4475C15.9649 15.5525 15.6949 15.605 15.3599 15.605C14.9799 15.605 14.6449 15.5375 14.3549 15.4025C14.0699 15.2625 13.8449 15.0525 13.6799 14.7725C13.5199 14.4925 13.4399 14.1475 13.4399 13.7375C13.4399 13.3125 13.5249 12.96 13.6949 12.68C13.8699 12.4 14.0999 12.1925 14.3849 12.0575C14.6749 11.9175 14.9924 11.8475 15.3374 11.8475C15.6674 11.8475 15.9324 11.905 16.1324 12.02C16.3324 12.135 16.4324 12.2775 16.4324 12.4475C16.4324 12.5225 16.4124 12.5925 16.3724 12.6575C16.3324 12.7225 16.2849 12.775 16.2299 12.815C16.1299 12.755 16.0174 12.7025 15.8924 12.6575C15.7674 12.6125 15.6174 12.59 15.4424 12.59ZM18.4142 13.3625L18.5792 13.3325C18.7692 13.0875 18.9492 12.8525 19.1192 12.6275C19.2942 12.3975 19.4742 12.155 19.6592 11.9C19.6792 11.895 19.6967 11.8925 19.7117 11.8925C19.7267 11.8925 19.7417 11.8925 19.7567 11.8925C19.9267 11.8925 20.0592 11.93 20.1542 12.005C20.2542 12.08 20.3042 12.175 20.3042 12.29C20.3042 12.38 20.2817 12.4625 20.2367 12.5375C20.1967 12.6125 20.1242 12.7125 20.0192 12.8375C19.8692 13.0125 19.7167 13.19 19.5617 13.37C19.4117 13.545 19.2642 13.72 19.1192 13.895L18.8342 14.0525C18.6592 14.2975 18.4792 14.5475 18.2942 14.8025C18.1142 15.0525 17.9367 15.3 17.7617 15.545C17.7417 15.545 17.7192 15.545 17.6942 15.545C17.6742 15.55 17.6542 15.5525 17.6342 15.5525C17.4542 15.5525 17.3167 15.515 17.2217 15.44C17.1267 15.36 17.0792 15.265 17.0792 15.155C17.0792 15.075 17.0967 15.0025 17.1317 14.9375C17.1667 14.8675 17.2367 14.7725 17.3417 14.6525C17.5117 14.4375 17.6867 14.225 17.8667 14.015C18.0517 13.8 18.2342 13.5825 18.4142 13.3625ZM18.9617 13.43L19.1717 13.55C19.3667 13.81 19.5642 14.07 19.7642 14.33C19.9692 14.59 20.1692 14.85 20.3642 15.11C20.3492 15.25 20.2967 15.36 20.2067 15.44C20.1167 15.52 20.0067 15.56 19.8767 15.56C19.7467 15.56 19.6392 15.525 19.5542 15.455C19.4742 15.38 19.3892 15.2825 19.2992 15.1625C19.1642 14.9725 19.0242 14.775 18.8792 14.57C18.7392 14.365 18.6017 14.17 18.4667 13.985L18.2867 13.8425C18.0717 13.5925 17.8642 13.3475 17.6642 13.1075C17.4692 12.8625 17.2717 12.6175 17.0717 12.3725C17.1017 12.2275 17.1592 12.1125 17.2442 12.0275C17.3292 11.9375 17.4342 11.8925 17.5592 11.8925C17.6842 11.8925 17.7792 11.925 17.8442 11.99C17.9142 12.05 17.9892 12.1325 18.0692 12.2375C18.2092 12.4225 18.3517 12.6175 18.4967 12.8225C18.6467 13.0275 18.8017 13.23 18.9617 13.43Z" fill="white"/>
</svg>
