<svg width="24" height="24" viewBox="0 0 24 24" fill="none" xmlns="http://www.w3.org/2000/svg">
<path d="M4.91138 20.0477V17.6102H5.8695L21.5647 17.6064V21.55C21.5648 21.8717 21.5016 22.1903 21.3787 22.4876C21.2557 22.7848 21.0753 23.0549 20.8479 23.2825C20.6205 23.51 20.3505 23.6905 20.0533 23.8137C19.7561 23.9368 19.4376 24.0002 19.1159 24.0002H7.36106C7.03943 24.0003 6.72093 23.937 6.42375 23.8139C6.12658 23.6909 5.85654 23.5106 5.62907 23.2832C5.40159 23.0558 5.22113 22.7858 5.09799 22.4887C4.97485 22.1916 4.91144 21.8731 4.91138 21.5514V20.0477Z" fill="#E7E7E9"/>
<path d="M21.5648 17.1561V17.6071L5.86962 17.6108H3.65384C3.35251 17.6108 3.06187 17.7224 2.83801 17.9241C2.61415 18.1258 2.47294 18.4033 2.44165 18.703L2.46181 10.1019C2.46181 9.77868 2.59021 9.46869 2.81877 9.24013C3.04733 9.01157 3.35732 8.88316 3.68056 8.88316H4.91149L21.5648 8.87988V17.1561Z" fill="#B19470"/>
<path d="M21.0717 3.48023C21.3178 3.69972 21.4829 3.99558 21.5405 4.32023H18.6258C18.2362 4.32011 17.8626 4.16529 17.5872 3.88982C17.3117 3.61434 17.1569 3.24075 17.1567 2.85117V0.111328C17.3102 0.173573 17.4519 0.261555 17.5758 0.371484L21.0717 3.48023Z" fill="#A3A2A3"/>
<path d="M21.5405 4.32C21.5559 4.40507 21.5636 4.49136 21.5634 4.57781V8.88047L4.91016 8.88375V2.93859C4.91022 2.55255 4.98633 2.1703 5.13415 1.81368C5.28197 1.45706 5.49859 1.13305 5.77165 0.860169C6.04471 0.587283 6.36886 0.370864 6.72557 0.223275C7.08229 0.0756849 7.46458 -0.000184378 7.85063 3.36472e-07H16.598C16.7899 -0.000111575 16.9799 0.0376406 17.1572 0.111094V2.85094C17.1573 3.24044 17.3121 3.61396 17.5874 3.88942C17.8628 4.16488 18.2363 4.31975 18.6258 4.32H21.5405Z" fill="#E7E7E9"/>
<path d="M4.91148 17.7159V20.0474H3.65382C3.4933 20.0474 3.33436 20.0157 3.18612 19.9541C3.03789 19.8925 2.90329 19.8022 2.79004 19.6885C2.6768 19.5747 2.58714 19.4397 2.52622 19.2912C2.46531 19.1427 2.43433 18.9836 2.43507 18.823C2.43508 18.783 2.43727 18.7429 2.44163 18.703C2.47303 18.4034 2.61429 18.1261 2.83814 17.9245C3.06199 17.7229 3.35257 17.6113 3.65382 17.6113H4.91148V17.7159Z" fill="#887053"/>
<path d="M6.29422 13.3325H7.23922V14.2775C7.23922 14.5725 7.18172 14.82 7.06672 15.02C6.95172 15.215 6.79172 15.36 6.58672 15.455C6.38672 15.55 6.15172 15.5975 5.88172 15.5975C5.61172 15.5975 5.39672 15.5575 5.23672 15.4775C5.07672 15.3925 4.99672 15.2625 4.99672 15.0875C4.99672 15.0025 5.01172 14.93 5.04172 14.87C5.07172 14.805 5.10172 14.755 5.13172 14.72C5.21672 14.75 5.30172 14.775 5.38672 14.795C5.47672 14.81 5.56922 14.8175 5.66422 14.8175C5.87922 14.8175 6.03672 14.7675 6.13672 14.6675C6.24172 14.5625 6.29422 14.4 6.29422 14.18V13.3325ZM7.23922 13.7H6.29422V10.9475C6.33422 10.9375 6.39672 10.925 6.48172 10.91C6.56672 10.895 6.64922 10.8875 6.72922 10.8875C6.90422 10.8875 7.03172 10.92 7.11172 10.985C7.19672 11.045 7.23922 11.16 7.23922 11.33V13.7ZM9.965 15.605C9.765 15.605 9.5825 15.5775 9.4175 15.5225C9.2575 15.4725 9.125 15.415 9.02 15.35V14.555C9.115 14.635 9.2275 14.7075 9.3575 14.7725C9.4925 14.8325 9.65 14.8625 9.83 14.8625C10.13 14.8625 10.3675 14.77 10.5425 14.585C10.7175 14.395 10.805 14.1025 10.805 13.7075C10.805 13.4325 10.7625 13.215 10.6775 13.055C10.5975 12.89 10.485 12.77 10.34 12.695C10.195 12.62 10.0325 12.5825 9.8525 12.5825C9.7125 12.5825 9.59 12.6 9.485 12.635C9.38 12.665 9.29 12.7025 9.215 12.7475V15.1175H8.2925V12.6575C8.2925 12.5425 8.315 12.4475 8.36 12.3725C8.405 12.2975 8.48 12.2275 8.585 12.1625C8.73 12.0775 8.91 12.005 9.125 11.945C9.34 11.88 9.5825 11.8475 9.8525 11.8475C10.2175 11.8475 10.5425 11.9125 10.8275 12.0425C11.1125 12.1675 11.335 12.3675 11.495 12.6425C11.66 12.9175 11.7425 13.2725 11.7425 13.7075C11.7425 14.1275 11.665 14.4775 11.51 14.7575C11.36 15.0375 11.15 15.25 10.88 15.395C10.615 15.535 10.31 15.605 9.965 15.605ZM9.215 14.8625V16.8425C9.175 16.8575 9.1175 16.87 9.0425 16.88C8.9675 16.895 8.885 16.9025 8.795 16.9025C8.625 16.9025 8.4975 16.87 8.4125 16.805C8.3325 16.74 8.2925 16.6275 8.2925 16.4675V14.855L9.215 14.8625ZM12.9382 14.195L12.9007 13.55L14.9107 13.25C14.8957 13.06 14.8232 12.895 14.6932 12.755C14.5632 12.615 14.3732 12.545 14.1232 12.545C13.8682 12.545 13.6557 12.635 13.4857 12.815C13.3157 12.99 13.2282 13.2425 13.2232 13.5725L13.2457 13.9625C13.2907 14.2825 13.4132 14.5175 13.6132 14.6675C13.8182 14.8175 14.0757 14.8925 14.3857 14.8925C14.5957 14.8925 14.7907 14.8625 14.9707 14.8025C15.1507 14.7375 15.2932 14.6675 15.3982 14.5925C15.4682 14.6375 15.5232 14.695 15.5632 14.765C15.6082 14.83 15.6307 14.9025 15.6307 14.9825C15.6307 15.1125 15.5732 15.225 15.4582 15.32C15.3432 15.41 15.1882 15.48 14.9932 15.53C14.7982 15.58 14.5757 15.605 14.3257 15.605C13.9407 15.605 13.5982 15.535 13.2982 15.395C13.0032 15.25 12.7707 15.035 12.6007 14.75C12.4357 14.465 12.3532 14.11 12.3532 13.685C12.3532 13.38 12.4007 13.1125 12.4957 12.8825C12.5907 12.6525 12.7182 12.4625 12.8782 12.3125C13.0432 12.1575 13.2332 12.0425 13.4482 11.9675C13.6632 11.8875 13.8882 11.8475 14.1232 11.8475C14.4532 11.8475 14.7407 11.915 14.9857 12.05C15.2357 12.18 15.4307 12.3625 15.5707 12.5975C15.7157 12.8325 15.7882 13.1025 15.7882 13.4075C15.7882 13.5475 15.7507 13.6525 15.6757 13.7225C15.6057 13.7875 15.5057 13.8275 15.3757 13.8425L12.9382 14.195ZM18.0022 15.3725C17.7072 15.3725 17.4347 15.3175 17.1847 15.2075C16.9347 15.0925 16.7347 14.905 16.5847 14.645C16.4347 14.385 16.3597 14.0425 16.3597 13.6175C16.3597 13.2275 16.4347 12.9025 16.5847 12.6425C16.7397 12.3775 16.9547 12.18 17.2297 12.05C17.5097 11.915 17.8297 11.8475 18.1897 11.8475C18.4447 11.8475 18.6797 11.88 18.8947 11.945C19.1147 12.01 19.2897 12.085 19.4197 12.17C19.5047 12.225 19.5722 12.2925 19.6222 12.3725C19.6772 12.4475 19.7047 12.54 19.7047 12.65V14.99H18.8047V12.7325C18.7397 12.6925 18.6597 12.6575 18.5647 12.6275C18.4697 12.5975 18.3522 12.5825 18.2122 12.5825C17.9372 12.5825 17.7122 12.6675 17.5372 12.8375C17.3672 13.0075 17.2822 13.2675 17.2822 13.6175C17.2822 14.0025 17.3647 14.2725 17.5297 14.4275C17.6997 14.5825 17.9072 14.66 18.1522 14.66C18.3422 14.66 18.4947 14.6275 18.6097 14.5625C18.7297 14.4975 18.8297 14.4275 18.9097 14.3525L18.9397 15.1025C18.8497 15.1725 18.7247 15.235 18.5647 15.29C18.4097 15.345 18.2222 15.3725 18.0022 15.3725ZM18.8197 15.5225V14.7875H19.7047V15.5525C19.7047 15.8925 19.6272 16.1675 19.4722 16.3775C19.3172 16.5925 19.1047 16.75 18.8347 16.85C18.5697 16.95 18.2722 17 17.9422 17C17.6822 17 17.4547 16.975 17.2597 16.925C17.0697 16.875 16.9297 16.8225 16.8397 16.7675C16.6747 16.6675 16.5922 16.53 16.5922 16.355C16.5922 16.265 16.6122 16.185 16.6522 16.115C16.6922 16.045 16.7397 15.9925 16.7947 15.9575C16.9197 16.0375 17.0747 16.1075 17.2597 16.1675C17.4497 16.2275 17.6497 16.2575 17.8597 16.2575C18.1597 16.2575 18.3947 16.1975 18.5647 16.0775C18.7347 15.9625 18.8197 15.7775 18.8197 15.5225Z" fill="white"/>
</svg>
