<svg width="24" height="24" viewBox="0 0 24 24" fill="none" xmlns="http://www.w3.org/2000/svg">
<path d="M4.91138 20.0477V17.6102H5.8695L21.5647 17.6064V21.55C21.5648 21.8717 21.5016 22.1903 21.3787 22.4876C21.2557 22.7848 21.0753 23.0549 20.8479 23.2825C20.6205 23.51 20.3505 23.6905 20.0533 23.8137C19.7561 23.9368 19.4376 24.0002 19.1159 24.0002H7.36106C7.03943 24.0003 6.72093 23.937 6.42375 23.8139C6.12658 23.6909 5.85654 23.5106 5.62907 23.2832C5.40159 23.0558 5.22113 22.7858 5.09799 22.4887C4.97485 22.1916 4.91144 21.8731 4.91138 21.5514V20.0477Z" fill="#E7E7E9"/>
<path d="M21.5648 17.1561V17.6071L5.86962 17.6108H3.65384C3.35251 17.6108 3.06187 17.7224 2.83801 17.9241C2.61415 18.1258 2.47294 18.4033 2.44165 18.703L2.46181 10.1019C2.46181 9.77868 2.59021 9.46869 2.81877 9.24013C3.04733 9.01157 3.35732 8.88316 3.68056 8.88316H4.91149L21.5648 8.87988V17.1561Z" fill="#5D5FB9"/>
<path d="M21.0717 3.48023C21.3178 3.69972 21.4829 3.99558 21.5405 4.32023H18.6258C18.2362 4.32011 17.8626 4.16529 17.5872 3.88982C17.3117 3.61434 17.1569 3.24075 17.1567 2.85117V0.111328C17.3102 0.173573 17.4519 0.261555 17.5758 0.371484L21.0717 3.48023Z" fill="#A3A2A3"/>
<path d="M21.5405 4.32C21.5559 4.40507 21.5636 4.49136 21.5634 4.57781V8.88047L4.91016 8.88375V2.93859C4.91022 2.55255 4.98633 2.1703 5.13415 1.81368C5.28197 1.45706 5.49859 1.13305 5.77165 0.860169C6.04471 0.587283 6.36886 0.370864 6.72557 0.223275C7.08229 0.0756849 7.46458 -0.000184378 7.85063 3.36472e-07H16.598C16.7899 -0.000111575 16.9799 0.0376406 17.1572 0.111094V2.85094C17.1573 3.24044 17.3121 3.61396 17.5874 3.88942C17.8628 4.16488 18.2363 4.31975 18.6258 4.32H21.5405Z" fill="#E7E7E9"/>
<path d="M4.91148 17.7159V20.0474H3.65382C3.4933 20.0474 3.33436 20.0157 3.18612 19.9541C3.03789 19.8925 2.90329 19.8022 2.79004 19.6885C2.6768 19.5747 2.58714 19.4397 2.52622 19.2912C2.46531 19.1427 2.43433 18.9836 2.43507 18.823C2.43508 18.783 2.43727 18.7429 2.44163 18.703C2.47303 18.4034 2.61429 18.1261 2.83814 17.9245C3.06199 17.7229 3.35257 17.6113 3.65382 17.6113H4.91148V17.7159Z" fill="#262771"/>
<path d="M7.79373 13.3325H8.73873V14.2775C8.73873 14.5725 8.68123 14.82 8.56623 15.02C8.45123 15.215 8.29123 15.36 8.08623 15.455C7.88623 15.55 7.65123 15.5975 7.38123 15.5975C7.11123 15.5975 6.89623 15.5575 6.73623 15.4775C6.57623 15.3925 6.49623 15.2625 6.49623 15.0875C6.49623 15.0025 6.51123 14.93 6.54123 14.87C6.57123 14.805 6.60123 14.755 6.63123 14.72C6.71623 14.75 6.80123 14.775 6.88623 14.795C6.97623 14.81 7.06873 14.8175 7.16373 14.8175C7.37873 14.8175 7.53623 14.7675 7.63623 14.6675C7.74123 14.5625 7.79373 14.4 7.79373 14.18V13.3325ZM8.73873 13.7H7.79373V10.9475C7.83373 10.9375 7.89623 10.925 7.98123 10.91C8.06623 10.895 8.14873 10.8875 8.22873 10.8875C8.40373 10.8875 8.53123 10.92 8.61123 10.985C8.69623 11.045 8.73873 11.16 8.73873 11.33V13.7ZM11.4645 15.605C11.2645 15.605 11.082 15.5775 10.917 15.5225C10.757 15.4725 10.6245 15.415 10.5195 15.35V14.555C10.6145 14.635 10.727 14.7075 10.857 14.7725C10.992 14.8325 11.1495 14.8625 11.3295 14.8625C11.6295 14.8625 11.867 14.77 12.042 14.585C12.217 14.395 12.3045 14.1025 12.3045 13.7075C12.3045 13.4325 12.262 13.215 12.177 13.055C12.097 12.89 11.9845 12.77 11.8395 12.695C11.6945 12.62 11.532 12.5825 11.352 12.5825C11.212 12.5825 11.0895 12.6 10.9845 12.635C10.8795 12.665 10.7895 12.7025 10.7145 12.7475V15.1175H9.79201V12.6575C9.79201 12.5425 9.81451 12.4475 9.85951 12.3725C9.90451 12.2975 9.97951 12.2275 10.0845 12.1625C10.2295 12.0775 10.4095 12.005 10.6245 11.945C10.8395 11.88 11.082 11.8475 11.352 11.8475C11.717 11.8475 12.042 11.9125 12.327 12.0425C12.612 12.1675 12.8345 12.3675 12.9945 12.6425C13.1595 12.9175 13.242 13.2725 13.242 13.7075C13.242 14.1275 13.1645 14.4775 13.0095 14.7575C12.8595 15.0375 12.6495 15.25 12.3795 15.395C12.1145 15.535 11.8095 15.605 11.4645 15.605ZM10.7145 14.8625V16.8425C10.6745 16.8575 10.617 16.87 10.542 16.88C10.467 16.895 10.3845 16.9025 10.2945 16.9025C10.1245 16.9025 9.99701 16.87 9.91201 16.805C9.83201 16.74 9.79201 16.6275 9.79201 16.4675V14.855L10.7145 14.8625ZM15.5027 15.3725C15.2077 15.3725 14.9352 15.3175 14.6852 15.2075C14.4352 15.0925 14.2352 14.905 14.0852 14.645C13.9352 14.385 13.8602 14.0425 13.8602 13.6175C13.8602 13.2275 13.9352 12.9025 14.0852 12.6425C14.2402 12.3775 14.4552 12.18 14.7302 12.05C15.0102 11.915 15.3302 11.8475 15.6902 11.8475C15.9452 11.8475 16.1802 11.88 16.3952 11.945C16.6152 12.01 16.7902 12.085 16.9202 12.17C17.0052 12.225 17.0727 12.2925 17.1227 12.3725C17.1777 12.4475 17.2052 12.54 17.2052 12.65V14.99H16.3052V12.7325C16.2402 12.6925 16.1602 12.6575 16.0652 12.6275C15.9702 12.5975 15.8527 12.5825 15.7127 12.5825C15.4377 12.5825 15.2127 12.6675 15.0377 12.8375C14.8677 13.0075 14.7827 13.2675 14.7827 13.6175C14.7827 14.0025 14.8652 14.2725 15.0302 14.4275C15.2002 14.5825 15.4077 14.66 15.6527 14.66C15.8427 14.66 15.9952 14.6275 16.1102 14.5625C16.2302 14.4975 16.3302 14.4275 16.4102 14.3525L16.4402 15.1025C16.3502 15.1725 16.2252 15.235 16.0652 15.29C15.9102 15.345 15.7227 15.3725 15.5027 15.3725ZM16.3202 15.5225V14.7875H17.2052V15.5525C17.2052 15.8925 17.1277 16.1675 16.9727 16.3775C16.8177 16.5925 16.6052 16.75 16.3352 16.85C16.0702 16.95 15.7727 17 15.4427 17C15.1827 17 14.9552 16.975 14.7602 16.925C14.5702 16.875 14.4302 16.8225 14.3402 16.7675C14.1752 16.6675 14.0927 16.53 14.0927 16.355C14.0927 16.265 14.1127 16.185 14.1527 16.115C14.1927 16.045 14.2402 15.9925 14.2952 15.9575C14.4202 16.0375 14.5752 16.1075 14.7602 16.1675C14.9502 16.2275 15.1502 16.2575 15.3602 16.2575C15.6602 16.2575 15.8952 16.1975 16.0652 16.0775C16.2352 15.9625 16.3202 15.7775 16.3202 15.5225Z" fill="white"/>
</svg>
