<svg width="24" height="24" viewBox="0 0 24 24" fill="none" xmlns="http://www.w3.org/2000/svg">
<path d="M4.91162 20.0477V17.6102H5.86975L21.5649 17.6064V21.55C21.5651 21.8717 21.5019 22.1903 21.3789 22.4876C21.2559 22.7848 21.0756 23.0549 20.8482 23.2825C20.6208 23.51 20.3508 23.6905 20.0536 23.8137C19.7564 23.9368 19.4378 24.0002 19.1162 24.0002H7.36131C7.03967 24.0003 6.72117 23.937 6.424 23.8139C6.12682 23.6909 5.85679 23.5106 5.62931 23.2832C5.40184 23.0558 5.22138 22.7858 5.09824 22.4887C4.97509 22.1916 4.91168 21.8731 4.91162 21.5514V20.0477Z" fill="#E7E7E9"/>
<path d="M21.5649 17.1561V17.6071L5.86974 17.6108H3.65396C3.35264 17.6108 3.06199 17.7224 2.83813 17.9241C2.61427 18.1258 2.47306 18.4033 2.44177 18.703L2.46193 10.1019C2.46193 9.77868 2.59033 9.46869 2.81889 9.24013C3.04745 9.01157 3.35745 8.88316 3.68068 8.88316H4.91162L21.5649 8.87988V17.1561Z" fill="#F22525"/>
<path d="M21.0717 3.48023C21.3178 3.69972 21.4829 3.99558 21.5405 4.32023H18.6258C18.2362 4.32011 17.8626 4.16529 17.5872 3.88982C17.3117 3.61434 17.1569 3.24075 17.1567 2.85117V0.111328C17.3102 0.173573 17.4519 0.261555 17.5758 0.371484L21.0717 3.48023Z" fill="#A3A2A3"/>
<path d="M21.5405 4.32C21.5559 4.40507 21.5636 4.49136 21.5634 4.57781V8.88047L4.91016 8.88375V2.93859C4.91022 2.55255 4.98633 2.1703 5.13415 1.81368C5.28197 1.45706 5.49859 1.13305 5.77165 0.860169C6.04471 0.587283 6.36886 0.370864 6.72557 0.223275C7.08229 0.0756849 7.46458 -0.000184378 7.85063 3.36472e-07H16.598C16.7899 -0.000111575 16.9799 0.0376406 17.1572 0.111094V2.85094C17.1573 3.24044 17.3121 3.61396 17.5874 3.88942C17.8628 4.16488 18.2363 4.31975 18.6258 4.32H21.5405Z" fill="#E7E7E9"/>
<path d="M4.9116 17.7159V20.0474H3.65394C3.49342 20.0474 3.33448 20.0157 3.18625 19.9541C3.03801 19.8925 2.90341 19.8022 2.79016 19.6885C2.67692 19.5747 2.58726 19.4397 2.52635 19.2912C2.46543 19.1427 2.43445 18.9836 2.43519 18.823C2.4352 18.783 2.4374 18.7429 2.44176 18.703C2.47316 18.4034 2.61441 18.1261 2.83826 17.9245C3.06211 17.7229 3.35269 17.6113 3.65394 17.6113H4.9116V17.7159Z" fill="#CB2F29"/>
<path d="M7.75834 13.22H8.31334C8.61834 13.22 8.85834 13.1525 9.03334 13.0175C9.20834 12.8775 9.29584 12.675 9.29584 12.41C9.29584 12.14 9.21084 11.94 9.04084 11.81C8.87584 11.68 8.63834 11.615 8.32834 11.615C8.21834 11.615 8.11584 11.62 8.02084 11.63C7.92584 11.635 7.83834 11.645 7.75834 11.66V13.22ZM8.36584 13.9775H6.81334V11.3225C6.81334 11.2325 6.83834 11.1625 6.88834 11.1125C6.94334 11.0625 7.01334 11.0225 7.09834 10.9925C7.25834 10.9425 7.44834 10.905 7.66834 10.88C7.88834 10.855 8.09334 10.8425 8.28334 10.8425C8.94334 10.8425 9.43584 10.9825 9.76084 11.2625C10.0908 11.5425 10.2558 11.9225 10.2558 12.4025C10.2558 12.7225 10.1833 13 10.0383 13.235C9.89334 13.47 9.68084 13.6525 9.40084 13.7825C9.12084 13.9125 8.77584 13.9775 8.36584 13.9775ZM6.81334 13.55H7.76584V15.485C7.72584 15.5 7.66334 15.5125 7.57834 15.5225C7.49834 15.5375 7.41334 15.545 7.32334 15.545C7.14334 15.545 7.01334 15.5125 6.93334 15.4475C6.85334 15.3775 6.81334 15.2625 6.81334 15.1025V13.55ZM13.2381 14.72V12.365H14.1606V14.8175C14.1606 14.9275 14.1356 15.02 14.0856 15.095C14.0406 15.165 13.9656 15.2325 13.8606 15.2975C13.7406 15.3775 13.5756 15.4475 13.3656 15.5075C13.1606 15.5725 12.9256 15.605 12.6606 15.605C12.2656 15.605 11.9206 15.54 11.6256 15.41C11.3356 15.275 11.1106 15.07 10.9506 14.795C10.7906 14.515 10.7106 14.1625 10.7106 13.7375C10.7106 13.3025 10.7906 12.945 10.9506 12.665C11.1156 12.385 11.3356 12.18 11.6106 12.05C11.8856 11.915 12.1906 11.8475 12.5256 11.8475C12.7106 11.8475 12.8781 11.87 13.0281 11.915C13.1831 11.96 13.3081 12.0125 13.4031 12.0725V12.86C13.3231 12.785 13.2181 12.72 13.0881 12.665C12.9581 12.61 12.8081 12.5825 12.6381 12.5825C12.4531 12.5825 12.2856 12.6225 12.1356 12.7025C11.9856 12.7775 11.8681 12.9025 11.7831 13.0775C11.6981 13.2475 11.6556 13.47 11.6556 13.745C11.6556 14.135 11.7456 14.42 11.9256 14.6C12.1056 14.78 12.3481 14.87 12.6531 14.87C12.7881 14.87 12.9031 14.855 12.9981 14.825C13.0931 14.795 13.1731 14.76 13.2381 14.72ZM14.1606 12.5525L13.2381 12.56V10.625C13.2731 10.615 13.3281 10.6025 13.4031 10.5875C13.4831 10.5725 13.5656 10.565 13.6506 10.565C13.8306 10.565 13.9606 10.5975 14.0406 10.6625C14.1206 10.7225 14.1606 10.8325 14.1606 10.9925V12.5525ZM15.8962 12.905V12.185H17.4037C17.4237 12.22 17.4437 12.27 17.4637 12.335C17.4887 12.395 17.5012 12.465 17.5012 12.545C17.5012 12.67 17.4712 12.7625 17.4112 12.8225C17.3562 12.8775 17.2762 12.905 17.1712 12.905H15.8962ZM16.0387 11.825V12.7925H15.1537V11.7875C15.1537 11.4725 15.2162 11.2175 15.3412 11.0225C15.4712 10.8225 15.6487 10.6775 15.8737 10.5875C16.1037 10.4925 16.3637 10.445 16.6537 10.445C16.9787 10.445 17.2262 10.4875 17.3962 10.5725C17.5662 10.6575 17.6512 10.785 17.6512 10.955C17.6512 11.03 17.6337 11.1 17.5987 11.165C17.5687 11.225 17.5312 11.275 17.4862 11.315C17.3912 11.275 17.2837 11.2425 17.1637 11.2175C17.0487 11.1925 16.9262 11.18 16.7962 11.18C16.5312 11.18 16.3387 11.23 16.2187 11.33C16.0987 11.43 16.0387 11.595 16.0387 11.825ZM15.1537 12.53H16.0762V15.485C16.0362 15.5 15.9787 15.5125 15.9037 15.5225C15.8287 15.5375 15.7462 15.545 15.6562 15.545C15.4862 15.545 15.3587 15.515 15.2737 15.455C15.1937 15.39 15.1537 15.2775 15.1537 15.1175V12.53Z" fill="white"/>
</svg>
