<svg width="24" height="24" viewBox="0 0 24 24" fill="none" xmlns="http://www.w3.org/2000/svg">
<path d="M4.91162 20.0477V17.6102H5.86975L21.5649 17.6064V21.55C21.5651 21.8717 21.5019 22.1903 21.3789 22.4876C21.2559 22.7848 21.0756 23.0549 20.8482 23.2825C20.6208 23.51 20.3508 23.6905 20.0536 23.8137C19.7564 23.9368 19.4378 24.0002 19.1162 24.0002H7.36131C7.03967 24.0003 6.72117 23.937 6.424 23.8139C6.12682 23.6909 5.85679 23.5106 5.62931 23.2832C5.40184 23.0558 5.22138 22.7858 5.09824 22.4887C4.97509 22.1916 4.91168 21.8731 4.91162 21.5514V20.0477Z" fill="#E7E7E9"/>
<path d="M21.5649 17.1561V17.6071L5.86974 17.6108H3.65396C3.35264 17.6108 3.06199 17.7224 2.83813 17.9241C2.61427 18.1258 2.47306 18.4033 2.44177 18.703L2.46193 10.1019C2.46193 9.77868 2.59033 9.46869 2.81889 9.24013C3.04745 9.01157 3.35745 8.88316 3.68068 8.88316H4.91162L21.5649 8.87988V17.1561Z" fill="#C36B45"/>
<path d="M21.0717 3.48023C21.3178 3.69972 21.4829 3.99558 21.5405 4.32023H18.6258C18.2362 4.32011 17.8626 4.16529 17.5872 3.88982C17.3117 3.61434 17.1569 3.24075 17.1567 2.85117V0.111328C17.3102 0.173573 17.4519 0.261555 17.5758 0.371484L21.0717 3.48023Z" fill="#A3A2A3"/>
<path d="M21.5405 4.32C21.5559 4.40507 21.5636 4.49136 21.5634 4.57781V8.88047L4.91016 8.88375V2.93859C4.91022 2.55255 4.98633 2.1703 5.13415 1.81368C5.28197 1.45706 5.49859 1.13305 5.77165 0.860169C6.04471 0.587283 6.36886 0.370864 6.72557 0.223275C7.08229 0.0756849 7.46458 -0.000184378 7.85063 3.36472e-07H16.598C16.7899 -0.000111575 16.9799 0.0376406 17.1572 0.111094V2.85094C17.1573 3.24044 17.3121 3.61396 17.5874 3.88942C17.8628 4.16488 18.2363 4.31975 18.6258 4.32H21.5405Z" fill="#E7E7E9"/>
<path d="M4.9116 17.7159V20.0474H3.65394C3.49342 20.0474 3.33448 20.0157 3.18625 19.9541C3.03801 19.8925 2.90341 19.8022 2.79016 19.6885C2.67692 19.5747 2.58726 19.4397 2.52635 19.2912C2.46543 19.1427 2.43445 18.9836 2.43519 18.823C2.4352 18.783 2.4374 18.7429 2.44176 18.703C2.47316 18.4034 2.61441 18.1261 2.83826 17.9245C3.06211 17.7229 3.35269 17.6113 3.65394 17.6113H4.9116V17.7159Z" fill="#862800"/>
<path d="M7.75663 13.22H8.31163C8.61663 13.22 8.85663 13.1525 9.03163 13.0175C9.20663 12.8775 9.29413 12.675 9.29413 12.41C9.29413 12.14 9.20913 11.94 9.03913 11.81C8.87413 11.68 8.63663 11.615 8.32663 11.615C8.21663 11.615 8.11413 11.62 8.01913 11.63C7.92413 11.635 7.83663 11.645 7.75663 11.66V13.22ZM8.36413 13.9775H6.81163V11.3225C6.81163 11.2325 6.83663 11.1625 6.88663 11.1125C6.94163 11.0625 7.01163 11.0225 7.09663 10.9925C7.25663 10.9425 7.44663 10.905 7.66663 10.88C7.88663 10.855 8.09163 10.8425 8.28163 10.8425C8.94163 10.8425 9.43413 10.9825 9.75913 11.2625C10.0891 11.5425 10.2541 11.9225 10.2541 12.4025C10.2541 12.7225 10.1816 13 10.0366 13.235C9.89163 13.47 9.67913 13.6525 9.39913 13.7825C9.11913 13.9125 8.77413 13.9775 8.36413 13.9775ZM6.81163 13.55H7.76413V15.485C7.72413 15.5 7.66163 15.5125 7.57663 15.5225C7.49663 15.5375 7.41163 15.545 7.32163 15.545C7.14163 15.545 7.01163 15.5125 6.93163 15.4475C6.85163 15.3775 6.81163 15.2625 6.81163 15.1025V13.55ZM14.1518 13.1825V13.91H13.2293V13.22C13.2293 13 13.1668 12.84 13.0418 12.74C12.9168 12.635 12.7493 12.5825 12.5393 12.5825C12.3843 12.5825 12.2443 12.6025 12.1193 12.6425C11.9993 12.6775 11.8918 12.72 11.7968 12.77V13.91H10.8743V12.71C10.8743 12.59 10.8993 12.4925 10.9493 12.4175C10.9993 12.3375 11.0743 12.265 11.1743 12.2C11.3243 12.1 11.5168 12.0175 11.7518 11.9525C11.9918 11.8825 12.2568 11.8475 12.5468 11.8475C13.0518 11.8475 13.4443 11.96 13.7243 12.185C14.0093 12.41 14.1518 12.7425 14.1518 13.1825ZM10.8743 13.5425H11.7968V15.485C11.7568 15.5 11.6993 15.5125 11.6243 15.5225C11.5493 15.5375 11.4668 15.545 11.3768 15.545C11.2068 15.545 11.0793 15.515 10.9943 15.455C10.9143 15.39 10.8743 15.2775 10.8743 15.1175V13.5425ZM13.2293 13.5425H14.1518V15.485C14.1168 15.5 14.0593 15.5125 13.9793 15.5225C13.9043 15.5375 13.8243 15.545 13.7393 15.545C13.5643 15.545 13.4343 15.515 13.3493 15.455C13.2693 15.39 13.2293 15.2775 13.2293 15.1175V13.5425ZM16.5923 15.3725C16.2973 15.3725 16.0248 15.3175 15.7748 15.2075C15.5248 15.0925 15.3248 14.905 15.1748 14.645C15.0248 14.385 14.9498 14.0425 14.9498 13.6175C14.9498 13.2275 15.0248 12.9025 15.1748 12.6425C15.3298 12.3775 15.5448 12.18 15.8198 12.05C16.0998 11.915 16.4198 11.8475 16.7798 11.8475C17.0348 11.8475 17.2698 11.88 17.4848 11.945C17.7048 12.01 17.8798 12.085 18.0098 12.17C18.0948 12.225 18.1623 12.2925 18.2123 12.3725C18.2673 12.4475 18.2948 12.54 18.2948 12.65V14.99H17.3948V12.7325C17.3298 12.6925 17.2498 12.6575 17.1548 12.6275C17.0598 12.5975 16.9423 12.5825 16.8023 12.5825C16.5273 12.5825 16.3023 12.6675 16.1273 12.8375C15.9573 13.0075 15.8723 13.2675 15.8723 13.6175C15.8723 14.0025 15.9548 14.2725 16.1198 14.4275C16.2898 14.5825 16.4973 14.66 16.7423 14.66C16.9323 14.66 17.0848 14.6275 17.1998 14.5625C17.3198 14.4975 17.4198 14.4275 17.4998 14.3525L17.5298 15.1025C17.4398 15.1725 17.3148 15.235 17.1548 15.29C16.9998 15.345 16.8123 15.3725 16.5923 15.3725ZM17.4098 15.5225V14.7875H18.2948V15.5525C18.2948 15.8925 18.2173 16.1675 18.0623 16.3775C17.9073 16.5925 17.6948 16.75 17.4248 16.85C17.1598 16.95 16.8623 17 16.5323 17C16.2723 17 16.0448 16.975 15.8498 16.925C15.6598 16.875 15.5198 16.8225 15.4298 16.7675C15.2648 16.6675 15.1823 16.53 15.1823 16.355C15.1823 16.265 15.2023 16.185 15.2423 16.115C15.2823 16.045 15.3298 15.9925 15.3848 15.9575C15.5098 16.0375 15.6648 16.1075 15.8498 16.1675C16.0398 16.2275 16.2398 16.2575 16.4498 16.2575C16.7498 16.2575 16.9848 16.1975 17.1548 16.0775C17.3248 15.9625 17.4098 15.7775 17.4098 15.5225Z" fill="white"/>
</svg>
